<?xml version="1.0" encoding="iso-8859-1"?>
<!-- Generator: Adobe Illustrator 17.1.0, SVG Export Plug-In . SVG Version: 6.00 Build 0)  -->
<!DOCTYPE svg PUBLIC "-//W3C//DTD SVG 1.1//EN" "http://www.w3.org/Graphics/SVG/1.1/DTD/svg11.dtd">
<svg version="1.1" xmlns="http://www.w3.org/2000/svg" xmlns:xlink="http://www.w3.org/1999/xlink" x="0px" y="0px"
	 viewBox="0 0 792 185.916" style="enable-background:new 0 0 792 185.916;" xml:space="preserve">
<g id="Layer_4">
</g>
<g id="Layer_2">
	<path style="fill:#EFEFEF;" d="M524.265,74.155c3.909-1.919,3.165-0.152,4.908-3.409c1.248-2.331,2.006-5.21,2.473-7.662
		c0.466-2.453-0.271-4.372,0.81-7.385c1.081-3.014,0.9-1.911,4.236-7.581c2.145-3.645,3.885-6.27,7.773-9.524
		s6.074-4.323,10.131-5.795c1.217-0.441,6.989-0.259,11.602,1.357c0.993,0.348,11.064,4.946,13.555,7.574
		c3.908,4.123,86.703,105.421,86.703,105.421s8.562,11.114,20.704,21.215c12.143,10.101,16.223,11.835,24.582,13.735
		c6.199,1.409,8.591,0.725,8.591,0.725s4.955-0.513,8.372-2.136c6.222-2.955,12.013-7.826,15.237-13.057s5.69-20.434,1.817-36.164
		c-3.873-15.73-4.353-18.108-5.786-27.953c-1.433-9.845-2.667-13.908-2.427-21.554c0.214-6.837,2.52-8.843,3.655-10.318
		c1.651-2.145,4.237-4.385,5.79-5.507c3.328-2.405,5.628-1.98,5.628-1.98s2.222-9.912-0.879-16.77
		c-3.102-6.858-7.872-10.729-18.542-16.992c-10.669-6.263-21.837-8.609-42.258-8.538c-16.713,0.058-30,6.752-35.581,10.266
		s-13.54,7.508-12.823,17.555s12.562,16.364,18.359,18.398s24.757,4.789,38.69,4.133c13.933-0.656,20.432-3.657,22.25-4.751
		c1.818-1.095,5.48-3.872,6.892-6.399c1.412-2.527,2.54-6.638,1.581-8.764c-0.542-1.199-4.938-5.19-6.095-5.817
		c-2.684-1.454-9.411-1.204-9.411-1.204l-3.42,0.968c0,0,8.48,2.628,8.906,6.182c0.426,3.554-6.533,6.298-6.533,6.298
		s-11.513,4.42-25.777,4.59c-14.264,0.17-30.491-2.142-36.278-7.91c-4.327-4.312-4.164-8.006-3.94-9.135
		c0.39-1.966,2.945-9.017,7.797-10.717c6.52-2.284,30.905-11.07,49.223-7.165s32.879,7.518,38.015,18.829
		c5.136,11.311-5.095,20.196-6.37,23.271c-1.018,2.455-3.979,7.122-3.438,15.865s1.461,29.757,1.415,38.473
		s-1.85,24.892-8.228,30.372c-6.378,5.48-22.806,10.367-33.183,1.658c-10.312-8.656-30.495-25.851-98.501-110.204
		c-4.855-6.023-13.159-12.407-21.187-15.294c-5.691-2.046-14.182-3.161-16.745-2.648c-1.095,0.219-21.749,8.119-29.886,29.791
		C521.727,71.669,524.265,74.155,524.265,74.155z"/>
	<circle style="fill:#EFEFEF;" cx="614.517" cy="49.294" r="5.09"/>
	<circle style="fill:#EFEFEF;" cx="634.282" cy="70.388" r="4.737"/>
	<circle style="fill:#EFEFEF;" cx="656.368" cy="91.019" r="4.869"/>
	<circle style="fill:#EFEFEF;" cx="674.383" cy="114.349" r="5.395"/>
</g>
<g id="Layer_3">
	<g>
		<path style="fill:#00A9D0;stroke:#00A9D0;stroke-width:0.25;stroke-miterlimit:10;" d="M43.083,162.837v-14.901
			c0-4.274-2.895-6.36-5.836-6.36c-2.898,0-5.839,2.087-5.839,6.36v14.901h-1.804v-14.901c0-5.221,3.419-8.069,7.643-8.069
			c3.559,0,5.743,1.612,6.69,4.413h0.096c0.947-2.801,3.131-4.413,6.69-4.413c4.227,0,7.643,2.848,7.643,8.069v14.901h-1.804
			v-14.901c0-4.274-2.941-6.36-5.839-6.36c-2.941,0-5.835,2.087-5.835,6.36v14.901H43.083z"/>
		<path style="fill:#00A9D0;stroke:#00A9D0;stroke-width:0.25;stroke-miterlimit:10;" d="M83.221,162.837v-11.249
			c0-5.221-3.749-10.013-9.159-10.013c-4.556,0-9.066,4.224-9.066,10.013c0,5.792,4.51,10.016,9.066,10.016
			c2.988,0,5.078-1.236,7.022-3.277v2.137c-1.376,1.14-3.559,2.848-7.022,2.848c-6.124,0-10.963-4.935-10.963-11.724
			c0-6.786,4.839-11.721,10.963-11.721c6.121,0,10.963,4.935,10.963,11.721v11.249H83.221z"/>
		<path style="fill:#00A9D0;stroke:#00A9D0;stroke-width:0.25;stroke-miterlimit:10;" d="M111.778,129.615v21.973
			c0,6.789-4.839,11.724-10.96,11.724c-6.124,0-10.963-4.935-10.963-11.724c0-6.786,4.839-11.721,10.963-11.721
			c3.463,0,5.646,1.708,7.022,2.848v2.134c-1.944-2.04-4.034-3.273-7.022-3.273c-4.556,0-9.066,4.224-9.066,10.013
			c0,5.792,4.51,10.016,9.066,10.016c5.41,0,9.159-4.795,9.159-10.016v-21.973H111.778z"/>
		<path style="fill:#00A9D0;stroke:#00A9D0;stroke-width:0.25;stroke-miterlimit:10;" d="M118.415,152.492v-1.804h9.019v1.804
			H118.415z"/>
		<path style="fill:#00A9D0;stroke:#00A9D0;stroke-width:0.25;stroke-miterlimit:10;" d="M135.542,162.837v-33.222h1.804v33.222
			H135.542z"/>
		<path style="fill:#00A9D0;stroke:#00A9D0;stroke-width:0.25;stroke-miterlimit:10;" d="M147.353,132.559
			c0.807,0,1.425,0.615,1.425,1.423c0,0.807-0.618,1.422-1.425,1.422c-0.807,0-1.423-0.615-1.423-1.422
			C145.931,133.174,146.546,132.559,147.353,132.559z M146.453,162.837v-22.494h1.804v22.494H146.453z"/>
		<path style="fill:#00A9D0;stroke:#00A9D0;stroke-width:0.25;stroke-miterlimit:10;" d="M157.649,129.615v21.973
			c0,5.221,3.749,10.016,9.159,10.016c4.556,0,9.066-4.224,9.066-10.016c0-5.789-4.51-10.013-9.066-10.013
			c-2.991,0-5.078,1.233-7.025,3.273v-2.134c1.376-1.14,3.559-2.848,7.025-2.848c6.121,0,10.963,4.935,10.963,11.721
			c0,6.789-4.842,11.724-10.963,11.724c-6.121,0-10.963-4.935-10.963-11.724v-21.973H157.649z"/>
		<path style="fill:#00A9D0;stroke:#00A9D0;stroke-width:0.25;stroke-miterlimit:10;" d="M184.404,129.615v21.973
			c0,5.221,3.748,10.016,9.159,10.016c4.556,0,9.065-4.224,9.065-10.016c0-5.789-4.509-10.013-9.065-10.013
			c-2.991,0-5.078,1.233-7.025,3.273v-2.134c1.376-1.14,3.559-2.848,7.025-2.848c6.121,0,10.963,4.935,10.963,11.721
			c0,6.789-4.842,11.724-10.963,11.724s-10.963-4.935-10.963-11.724v-21.973H184.404z"/>
		<path style="fill:#00A9D0;stroke:#00A9D0;stroke-width:0.25;stroke-miterlimit:10;" d="M212.775,154.768l14.475-9.777
			c-1.661-2.087-4.27-3.416-7.261-3.416c-5.742,0-9.777,4.792-9.777,10.155c0,5.317,4.177,9.873,9.777,9.873
			c5.457,0,9.777-4.413,9.87-9.541h1.901c-0.143,5.982-5.031,11.249-11.392,11.249c-7.022,0-12.053-5.078-12.053-11.674
			c0-6.36,4.746-11.77,11.674-11.77c4.317,0,7.973,2.23,10.013,5.506l-16.088,10.913L212.775,154.768z"/>
		<path style="fill:#00A9D0;stroke:#00A9D0;stroke-width:0.25;stroke-miterlimit:10;" d="M256.807,129.615v21.973
			c0,6.789-4.842,11.724-10.963,11.724c-6.124,0-10.963-4.935-10.963-11.724c0-6.786,4.839-11.721,10.963-11.721
			c3.463,0,5.646,1.708,7.022,2.848v2.134c-1.944-2.04-4.034-3.273-7.022-3.273c-4.556,0-9.066,4.224-9.066,10.013
			c0,5.792,4.51,10.016,9.066,10.016c5.41,0,9.159-4.795,9.159-10.016v-21.973H256.807z"/>
		<path style="fill:#00A9D0;stroke:#00A9D0;stroke-width:0.25;stroke-miterlimit:10;" d="M289.821,162.837v-14.901
			c0-4.274-2.894-6.36-5.835-6.36c-2.898,0-5.839,2.087-5.839,6.36v14.901h-1.804v-14.901c0-5.221,3.419-8.069,7.643-8.069
			c3.559,0,5.742,1.612,6.69,4.413h0.096c0.947-2.801,3.13-4.413,6.69-4.413c4.224,0,7.643,2.848,7.643,8.069v14.901h-1.804v-14.901
			c0-4.274-2.941-6.36-5.839-6.36c-2.941,0-5.836,2.087-5.836,6.36v14.901H289.821z"/>
		<path style="fill:#00A9D0;stroke:#00A9D0;stroke-width:0.25;stroke-miterlimit:10;" d="M312.874,140.342v13.478
			c0,4.696,3.273,7.783,7.211,7.783c3.941,0,7.215-3.087,7.215-7.783v-13.478h1.805v13.715c0,5.553-3.988,9.255-9.019,9.255
			c-5.028,0-9.016-3.702-9.016-9.255v-13.715H312.874z"/>
		<path style="fill:#00A9D0;stroke:#00A9D0;stroke-width:0.25;stroke-miterlimit:10;" d="M334.13,161.129h10.059
			c3.941,0,5.46-1.519,5.46-3.798c0-7.497-15.569-3.131-15.569-11.532c0-2.941,2.04-5.457,5.743-5.457h10.109v1.708h-9.966
			c-1.944,0-3.891,1.233-3.891,3.702c0,6.643,15.566,2.42,15.566,11.296c0,3.938-2.894,5.789-7.876,5.789h-9.634V161.129z"/>
		<path style="fill:#00A9D0;stroke:#00A9D0;stroke-width:0.25;stroke-miterlimit:10;" d="M359.034,132.559
			c0.808,0,1.426,0.615,1.426,1.423c0,0.807-0.618,1.422-1.426,1.422c-0.807,0-1.423-0.615-1.423-1.422
			C357.612,133.174,358.227,132.559,359.034,132.559z M358.134,162.837v-22.494h1.804v22.494H358.134z"/>
		<path style="fill:#00A9D0;stroke:#00A9D0;stroke-width:0.25;stroke-miterlimit:10;" d="M381.336,141.764h-3.277
			c-5.742,0-9.68,3.892-9.68,9.587c0,5.696,3.938,9.587,9.68,9.587h3.277v1.898h-3.37c-6.55,0-11.485-4.652-11.485-11.485
			c0-6.836,4.935-11.485,11.485-11.485h3.37V141.764z"/>
	</g>
</g>
<g id="Layer_5">
	<path style="fill:#EFEFEF;" d="M285.355,93.831h-6.32c-6.134,0-9.388,3.901-9.388,10.059c0,6.159,3.255,10.165,9.388,10.165h6.32
		v14.783h-8.922c-10.78,0-21.656-9.137-21.656-24.948c0-15.706,10.876-24.942,21.656-24.942h8.922V93.831z"/>
	<path style="fill:#EFEFEF;" d="M307.831,90.763c10.246,0,19.19,8.792,19.19,19.498c0,10.702-8.944,19.494-19.19,19.494
		c-10.246,0-19.19-8.792-19.19-19.494C288.64,99.555,297.585,90.763,307.831,90.763z M307.831,118.133
		c4.283,0,7.417-3.593,7.417-7.873c0-4.283-3.134-7.876-7.417-7.876s-7.416,3.593-7.416,7.876
		C300.414,114.54,303.548,118.133,307.831,118.133z"/>
	<path style="fill:#EFEFEF;" d="M350.953,128.839v-22.019c0-2.295-0.997-4.283-3.901-4.283c-2.904,0-3.898,1.988-3.898,4.283v22.019
		h-12.233v-24.007c0-8.64,7.416-14.069,15.597-14.069c3.897,0,7.873,2.218,10.55,5.199c2.674-2.981,6.652-5.199,10.55-5.199
		c8.181,0,15.597,5.429,15.597,14.069v24.007h-12.233v-22.019c0-2.295-0.994-4.283-3.897-4.283c-2.907,0-3.901,1.988-3.901,4.283
		v22.019H350.953z"/>
	<path style="fill:#EFEFEF;" d="M388.187,163.998v-55.191c0-11.926,10.243-18.044,21.1-18.044c11.848,0,20.41,8.41,20.41,19.572
		c0,12.768-10.09,19.42-19.799,19.42c-2.907,0-4.817-0.46-5.963-0.916v-11.317c0.916,0.534,2.444,1.071,5.121,1.071
		c4.739,0,8.41-3.441,8.41-8.333c0-4.895-3.671-8.336-8.41-8.336c-5.811,0-8.64,4.13-8.64,9.864v52.209H388.187z"/>
	<path style="fill:#EFEFEF;" d="M451.261,90.763c10.243,0,19.187,8.792,19.187,19.498c0,10.702-8.944,19.494-19.187,19.494
		c-10.246,0-19.19-8.792-19.19-19.494C432.071,99.555,441.015,90.763,451.261,90.763z M451.261,118.133
		c4.28,0,7.413-3.593,7.413-7.873c0-4.283-3.134-7.876-7.413-7.876c-4.283,0-7.416,3.593-7.416,7.876
		C443.844,114.54,446.978,118.133,451.261,118.133z"/>
	<path style="fill:#EFEFEF;" d="M472.361,118.441h11.774c1.454,0,2.143-0.689,2.143-1.683c0-3.516-13.531-2.218-13.531-14.529
		c0-7.031,6.115-10.547,11.926-10.547h11.926v9.938h-9.556c-1.453,0-2.525,0.764-2.525,1.758c0,2.981,14.299,3.746,14.299,13.761
		c0,7.569-4.742,11.699-12.767,11.699h-13.687V118.441z"/>
	<path style="fill:#EFEFEF;" d="M519.533,115.304l-4.662-7.339l10.013-6.575c-1.832-1.149-3.286-1.298-4.739-1.298
		c-5.047,0-7.799,5.121-7.799,9.553c0,4.59,3.289,9.404,8.258,9.404c4.587,0,9.096-4.05,10.932-8.333l8.792,4.513
		c-3.515,8.41-11.314,14.525-20.566,14.525c-10.245,0-19.19-8.792-19.19-19.494c0-10.705,8.944-19.498,19.19-19.498
		c8.562,0,14.221,4.587,18.196,11.851L519.533,115.304z"/>
	<path style="fill:#EFEFEF;" d="M552.944,97.875h0.156c1.832-5.277,5.351-6.193,10.702-6.193v11.162
		c-8.488,0.304-9.252,2.14-9.252,8.562v17.432h-12.23V91.682h10.625V97.875z"/>
	<g>
		<path style="fill:#EFEFEF;" d="M42.132,125.736H29.899V79.443h12.233V125.736z"/>
		<path style="fill:#EFEFEF;" d="M48.021,125.736v-21.252c0-9.634,5.581-16.821,15.979-16.821c10.398,0,15.979,7.187,15.979,16.821
			v21.252H68.205v-21.252c0-3.211-1.606-5.199-4.205-5.199c-2.6,0-4.205,1.988-4.205,5.199v21.252H48.021z"/>
		<path style="fill:#EFEFEF;" d="M82.96,115.338h11.774c1.453,0,2.14-0.687,2.14-1.68c0-3.519-13.531-2.217-13.531-14.528
			c0-7.031,6.118-10.55,11.926-10.55h11.926v9.941h-9.553c-1.454,0-2.525,0.764-2.525,1.758c0,2.981,14.295,3.745,14.295,13.758
			c0,7.571-4.739,11.699-12.764,11.699H82.96V115.338z"/>
		<path style="fill:#EFEFEF;" d="M132.732,88.275v11.162h-8.718v9.938c0,4.282,1.531,5.047,6.27,5.199
			c0.842,0,1.758-0.078,2.6-0.152v11.314h-6.882c-9.326,0-13.758-6.27-13.758-13.302V79.405h11.848v8.87H132.732z"/>
		<path style="fill:#EFEFEF;" d="M164.382,125.736v-17.125c0-6.575-3.056-9.786-8.637-9.786c-4.435,0-8.41,3.441-8.41,8.103
			c0,5.659,4.128,8.562,8.103,8.562c2.447,0,4.512-0.534,5.888-1.068v10.09c-2.295,1.606-4.894,2.14-8.336,2.14
			c-7.798,0-17.889-6.652-17.889-19.417c0-11.162,8.562-19.572,20.414-19.572c11.544,0,21.1,6.267,21.1,18.044v20.029H164.382z"/>
		<path style="fill:#EFEFEF;" d="M181.128,125.736v-21.252c0-9.634,5.581-16.821,15.979-16.821c10.395,0,15.976,7.187,15.976,16.821
			v21.252h-11.774v-21.252c0-3.211-1.603-5.199-4.202-5.199s-4.205,1.988-4.205,5.199v21.252H181.128z"/>
		<path style="fill:#EFEFEF;" d="M237.856,88.275v11.162h-8.718v9.938c0,4.282,1.531,5.047,6.27,5.199
			c0.841,0,1.758-0.078,2.599-0.152v11.314h-6.882c-9.326,0-13.761-6.27-13.761-13.302V79.405h11.851v8.87H237.856z"/>
	</g>
</g>
</svg>
